<svg width="31" height="31" viewBox="0 0 31 31" fill="none" xmlns="http://www.w3.org/2000/svg">
<path d="M15.4995 11.4642C13.2775 11.4642 11.4641 13.2776 11.4641 15.4996C11.4641 17.7217 13.2775 19.5351 15.4995 19.5351C17.7216 19.5351 19.535 17.7217 19.535 15.4996C19.535 13.2776 17.7216 11.4642 15.4995 11.4642ZM27.6029 15.4996C27.6029 13.8285 27.618 12.1726 27.5241 10.5045C27.4303 8.56701 26.9883 6.84748 25.5715 5.43069C24.1517 4.01086 22.4352 3.5719 20.4977 3.47805C18.8266 3.3842 17.1706 3.39934 15.5026 3.39934C13.8315 3.39934 12.1755 3.3842 10.5074 3.47805C8.56994 3.5719 6.85041 4.01389 5.43362 5.43069C4.01379 6.85051 3.57483 8.56701 3.48098 10.5045C3.38713 12.1756 3.40227 13.8316 3.40227 15.4996C3.40227 17.1677 3.38713 18.8267 3.48098 20.4947C3.57483 22.4322 4.01682 24.1518 5.43362 25.5686C6.85344 26.9884 8.56994 27.4274 10.5074 27.5212C12.1785 27.6151 13.8345 27.5999 15.5026 27.5999C17.1737 27.5999 18.8296 27.6151 20.4977 27.5212C22.4352 27.4274 24.1547 26.9854 25.5715 25.5686C26.9913 24.1488 27.4303 22.4322 27.5241 20.4947C27.621 18.8267 27.6029 17.1707 27.6029 15.4996ZM15.4995 21.7087C12.0635 21.7087 9.29045 18.9357 9.29045 15.4996C9.29045 12.0636 12.0635 9.29055 15.4995 9.29055C18.9356 9.29055 21.7086 12.0636 21.7086 15.4996C21.7086 18.9357 18.9356 21.7087 15.4995 21.7087ZM21.9629 10.4863C21.1607 10.4863 20.5128 9.8385 20.5128 9.03625C20.5128 8.23401 21.1607 7.58615 21.9629 7.58615C22.7652 7.58615 23.413 8.23401 23.413 9.03625C23.4132 9.22675 23.3759 9.41542 23.3031 9.59146C23.2303 9.7675 23.1235 9.92746 22.9888 10.0622C22.8541 10.1969 22.6942 10.3037 22.5181 10.3765C22.3421 10.4492 22.1534 10.4866 21.9629 10.4863Z" fill="white"/>
</svg>
