<svg width="56" height="81" viewBox="0 0 56 81" fill="none" xmlns="http://www.w3.org/2000/svg">
<path d="M1.50003 27.8459L1.50003 27.8455C1.50827 20.8608 4.28659 14.1645 9.22555 9.22552C14.1641 4.28698 20.8597 1.50871 27.8438 1.5C34.8279 1.50871 41.5235 4.28698 46.462 9.22552C51.401 14.1645 54.1793 20.8608 54.1875 27.8455V27.8459C54.1957 33.5474 52.3333 39.0942 48.886 43.6355L48.7361 43.833L48.7345 43.8379C48.6661 43.9272 48.5812 44.0379 48.4938 44.1517C48.3921 44.2841 48.288 44.4193 48.2029 44.5292C48.1921 44.543 48.1817 44.5564 48.1717 44.5693C48.1422 44.6073 48.1162 44.6406 48.0947 44.668C48.0702 44.6992 48.0573 44.7154 48.0527 44.721C48.0512 44.7229 48.0507 44.7236 48.0509 44.7233L27.8438 68.5556L7.63677 44.724L7.6368 44.724L7.63087 44.7171C7.63551 44.7225 7.62622 44.7116 7.59437 44.6715C7.56601 44.6357 7.52949 44.5891 7.48662 44.5339C7.40113 44.4239 7.29701 44.2886 7.19513 44.1556C7.09357 44.0231 6.99566 43.8948 6.92305 43.7995L6.8361 43.6852L6.8121 43.6537L6.80586 43.6455L6.8043 43.6434L6.80402 43.643C6.80398 43.643 6.80396 43.6429 6.80392 43.6429L6.80383 43.6428L6.80381 43.6428C3.35487 39.0994 1.49167 33.5501 1.50003 27.8459Z" fill="#BF2B2B" stroke="white" stroke-width="3"/>
<circle cx="28" cy="28" r="6.5" fill="white" stroke="white" stroke-width="3"/>
<circle cx="28.3438" cy="75.9375" r="4" fill="#BF2B2B" stroke="white" stroke-width="2"/>
</svg>
