<svg width="347" height="90" viewBox="0 0 347 90" fill="none" xmlns="http://www.w3.org/2000/svg">
<rect x="6.07251" y="2.75513" width="202.128" height="84.949" fill="#1B1E1F"/>
<path d="M2.19694 2.75538C2.08127 3.0615 2.02344 22.3472 2.02344 45.6125V87.8574H173.326H344.686L344.802 45.1227C344.917 16.9595 344.802 2.44925 344.397 2.44925C344.108 2.44925 266.958 2.38803 173.094 2.32681C59.6254 2.20435 2.25477 2.32681 2.19694 2.75538ZM32.5016 30.4288C33.0221 31.0411 34.5836 35.388 36.0873 40.1023C37.5331 44.8166 38.9789 49.0411 39.2103 49.4697C39.7886 50.388 39.4994 50.6329 50.2564 38.6942L58.5266 29.388H63.9051C69.8619 29.388 71.1343 29.6942 71.1343 31.1023C71.1343 31.5921 68.5896 34.837 65.4666 38.2044C43.8369 61.8982 45.5719 60.4901 37.0126 60.6125C28.1641 60.7962 27.9328 60.735 25.9664 58.8982C24.4049 57.4288 23.4218 55.0411 19.9518 44.2656C17.0023 35.0819 15.9034 31.1023 16.3083 30.3676C16.7709 29.5717 17.9854 29.388 24.2314 29.388C30.5353 29.388 31.7498 29.5717 32.5016 30.4288ZM88.3108 30.3676C88.7734 31.6533 87.3854 37.9595 86.6914 37.9595C86.3444 37.9595 86.2288 38.4493 86.4601 39.1227C86.6914 40.0411 82.4696 59.6329 81.7756 60.4901C81.6021 60.7962 66.9124 60.6125 66.6233 60.3676C66.3341 60.0003 71.1921 39.5513 71.7704 38.9391C72.0596 38.5717 72.2909 37.6533 72.2909 36.8574C72.2909 34.7758 73.5633 30.4288 74.3151 29.8778C74.6043 29.6329 77.8429 29.388 81.4286 29.388C86.8649 29.388 88.0216 29.5717 88.3108 30.3676ZM107.338 29.8778C107.685 30.1227 109.362 34.7146 111.039 40.1023C112.716 45.4901 114.22 50.0207 114.336 50.2044C114.451 50.3268 118.847 45.735 124.11 39.9186L133.71 29.388H139.378C148.4 29.388 148.342 29.6942 137.353 41.6329C133.479 45.8574 128.563 51.2452 126.423 53.6329C120.871 59.8166 119.252 60.5513 110.692 60.6737C103.232 60.735 101.265 60.184 99.7039 57.6737C99.1834 56.8778 96.9858 50.5717 94.7303 43.6533C91.5494 33.735 90.8554 30.9799 91.4338 30.2452C91.9543 29.5717 93.7471 29.388 99.4148 29.388C103.405 29.388 106.991 29.6329 107.338 29.8778ZM191.138 30.3064C194.666 31.837 194.724 33.0615 191.832 45.4288C189.23 56.4493 188.362 58.4084 185.529 60.0615C184.95 60.3676 175.928 60.6737 164.766 60.6737C139.031 60.6737 140.303 61.7146 144.583 44.0819C148.342 28.7146 147.069 29.388 171.07 29.388C185.586 29.388 189.577 29.5717 191.138 30.3064ZM223.062 40.1635C222.889 40.3472 222.368 40.4084 221.964 40.2248C221.501 40.0411 221.674 39.8574 222.311 39.8574C222.947 39.7962 223.294 39.9799 223.062 40.1635ZM216.122 42.2452C216.296 42.8574 216.238 42.9186 215.891 42.4901C215.66 42.1227 215.024 41.6329 214.561 41.4493C213.925 41.1431 214.04 41.0819 214.792 41.2044C215.428 41.2656 216.007 41.7554 216.122 42.2452ZM274.997 42.1227C274.823 42.3064 274.361 42.1227 273.956 41.6942C273.435 41.0819 273.493 41.0207 274.303 41.388C274.881 41.5717 275.17 41.9391 274.997 42.1227ZM230.176 42.4901C230.176 42.6737 229.945 42.9799 229.598 43.1635C229.308 43.3472 229.019 43.2248 229.019 42.9186C229.019 42.5513 229.308 42.2452 229.598 42.2452C229.945 42.2452 230.176 42.3676 230.176 42.4901ZM236.942 42.6125C236.769 42.7962 236.248 42.8574 235.844 42.6737C235.381 42.4901 235.554 42.3064 236.191 42.3064C236.827 42.2452 237.174 42.4288 236.942 42.6125ZM298.998 44.3268C298.593 44.7554 298.246 44.7554 297.841 44.3268C297.494 43.9595 297.667 43.7146 298.419 43.7146C299.171 43.7146 299.345 43.9595 298.998 44.3268ZM220.749 48.1839C220.633 49.1635 220.518 48.4901 220.518 46.837C220.518 45.1227 220.633 44.388 220.749 45.1227C220.865 45.9186 220.865 47.2656 220.749 48.1839ZM234.629 46.0411C234.456 46.5309 234.282 46.3472 234.282 45.6737C234.224 45.0003 234.398 44.6329 234.571 44.8778C234.745 45.0615 234.803 45.6125 234.629 46.0411ZM246.774 46.0411C246.601 46.5309 246.427 46.3472 246.427 45.6737C246.369 45.0003 246.543 44.6329 246.716 44.8778C246.89 45.0615 246.948 45.6125 246.774 46.0411ZM325.023 48.9799C325.023 49.286 324.733 49.5921 324.386 49.5921C324.097 49.5921 323.982 49.286 324.155 48.9799C324.329 48.6125 324.618 48.3676 324.791 48.3676C324.907 48.3676 325.023 48.6125 325.023 48.9799Z" fill="#F5F5F5"/>
<path d="M17.2337 30.9186C17.0602 31.1023 18.6795 36.8574 20.8772 43.6533C26.0822 59.7553 25.7352 59.388 35.3355 59.388C40.5983 59.388 42.796 59.1431 44.2997 58.4084C46.0347 57.5512 69.3415 32.6941 69.862 31.1635C69.9777 30.8574 67.7222 30.6125 64.5992 30.6125H59.105L49.0998 41.6329C43.6057 47.6941 39.0368 52.5308 38.9212 52.4696C38.8055 52.3472 37.1862 47.4492 35.3355 41.5716L31.9812 30.9186L24.752 30.7349C20.8193 30.6737 17.4072 30.7349 17.2337 30.9186Z" fill="#1B1E1F"/>
<path d="M74.8357 31.0415C74.4887 31.3476 73.9682 32.6945 73.7369 34.1027L73.332 36.7354H79.7515C86.8072 36.7354 86.865 36.7354 87.4434 32.3884C87.6169 30.919 87.6169 30.919 81.5444 30.7354C78.19 30.6741 75.1827 30.7966 74.8357 31.0415Z" fill="#1B1E1F"/>
<path d="M70.2091 49.2857L67.8379 59.3877H74.3731H80.9082L81.6022 56.755C82.8167 52.0408 85.5927 40.102 85.5927 39.6122C85.5927 39.3673 82.6432 39.1836 79.0576 39.1836H72.5802L70.2091 49.2857Z" fill="#1B1E1F"/>
<path d="M92.3017 31.1027C92.0126 31.6538 98.9526 53.4497 100.341 56.3272C101.613 58.9599 103.464 59.5109 110.635 59.4497C119.079 59.3272 120.235 58.7762 126.713 51.5517C129.604 48.2456 134.867 42.5517 138.279 38.817C141.749 35.0823 144.583 31.715 144.583 31.3476C144.583 30.8578 142.964 30.6129 139.378 30.6129H134.231L127.638 37.7762C124.052 41.7558 119.541 46.715 117.691 48.8578C115.84 50.9395 114.105 52.4701 113.874 52.2252C113.7 51.9191 112.254 47.7558 110.751 42.8578C109.247 37.9599 107.628 33.2456 107.165 32.266L106.355 30.6129H99.4731C95.7139 30.6129 92.4752 30.7966 92.3017 31.1027Z" fill="#1B1E1F"/>
<path d="M150.808 32.1019C149.882 32.7754 148.783 33.6325 148.379 34.1223C147.511 35.2244 143 53.7142 143 56.1019C143 59.7754 142.884 59.7754 164.688 59.7754H184.524L186.202 57.6938C187.647 56.0407 188.341 53.8978 190.308 45.204C191.638 39.4489 192.563 34.306 192.39 33.755C191.464 31.2448 189.556 30.9999 170.644 30.9999C154.104 30.9999 152.369 31.1223 150.808 32.1019ZM178.799 37.857C178.799 38.2856 177.931 42.0815 176.89 46.2448L175.04 53.8978H165.729C157.805 53.9591 156.533 53.8366 156.649 53.0407C156.996 51.5713 159.193 41.9591 159.83 39.3876L160.408 37.1223H169.603C176.659 37.1223 178.857 37.306 178.799 37.857Z" fill="#1B1E1F"/>
<path d="M161.702 38.4494C161.412 39.0004 158.463 51.0617 158.463 51.8576C158.463 52.4086 173.904 52.4698 174.425 51.9188C174.945 51.3678 177.953 38.5719 177.664 38.2657C177.143 37.7759 162.049 37.8984 161.702 38.4494Z" fill="#F5F5F5"/>
<g clip-path="url(#clip0_211_1215)">
<rect x="200.393" y="28.0107" width="85.8825" height="33.0612" fill="#E5B189"/>
<path d="M81.4759 18.5095C81.405 18.6694 81.2633 31.3041 81.1925 46.5778L81.0862 74.3662H186.133H291.179V46.3779V18.3895L186.416 18.3096C128.773 18.2696 81.5822 18.3495 81.4759 18.5095ZM120.093 28.0655C120.767 28.8252 120.554 30.0647 119.349 32.1838C118.286 34.063 117.046 34.5828 113.504 34.5828H110.776L110.032 37.6615C109.642 39.3808 108.402 44.5386 107.304 49.1767C106.205 53.7748 105.001 58.7727 104.646 60.2921C103.69 64.3304 103.761 64.2904 99.1549 64.0905C94.7263 63.9306 92.9548 63.2109 91.8566 61.2117C90.7937 59.2525 91.0417 57.1334 93.3446 47.4574C94.5491 42.4595 95.7183 37.5415 95.9663 36.462L96.3914 34.5828H92.9548C88.916 34.5828 88.1365 34.1829 88.5262 32.2637C88.6325 31.544 89.3411 30.2646 90.0851 29.3849L91.396 27.7856L98.092 27.6657C115.452 27.3458 119.526 27.4258 120.093 28.0655ZM134.265 28.4253C136.107 29.5449 136.957 30.9443 137.135 33.2633C137.383 35.9822 136.78 36.5819 133.981 36.5819H131.82L133.025 37.5016C135.434 39.3008 135.611 41.3 134.088 47.9772C131.608 58.6927 130.403 63.2109 129.872 63.6507C129.163 64.2904 123.459 64.3304 121.546 63.7306C119.597 63.1309 118.145 61.4916 117.72 59.4524C117.365 57.6132 117.365 57.5732 120.837 43.3791C121.688 39.7406 122.609 36.6619 122.821 36.502C123.069 36.342 124.274 36.1821 125.549 36.1821H127.852L126.577 35.3425C124.274 33.8231 123.353 29.8647 124.876 28.1455C125.585 27.3458 125.939 27.3058 129.269 27.4657C131.962 27.5857 133.237 27.8656 134.265 28.4253ZM156.762 37.1017C158.923 38.3812 160.128 41.0201 159.597 43.2992C159.207 44.8185 159.136 44.8985 157.4 45.0584C154.459 45.3783 153.928 46.2979 152.156 53.6948C149.818 63.4508 149.712 63.7306 148.684 64.0105C148.224 64.1705 146.275 64.1705 144.398 64.0905C139.756 63.8506 138.233 62.891 137.241 59.7323C136.816 58.4129 136.887 57.7731 137.914 53.335C140.288 42.7394 141.847 36.8218 142.272 36.502C142.52 36.342 145.531 36.1821 148.968 36.1821C154.778 36.1821 155.31 36.2621 156.762 37.1017ZM193.219 36.7819C194.636 37.6215 195.699 39.2608 195.699 40.6602C195.699 41.8198 193.467 52.0155 191.624 59.3725C191.093 61.4516 190.42 63.4108 190.101 63.6907C189.64 64.0905 186.912 64.1705 177.276 64.0905L165.053 63.9705L163.423 62.891C160.553 60.9718 160.341 58.4928 162.395 50.3762C162.998 47.9372 163.954 44.0189 164.521 41.6598C165.053 39.3008 165.726 37.1017 165.938 36.7819C166.576 35.9022 191.695 35.9022 193.219 36.7819ZM204.733 46.4978V50.3762L203.67 50.2563L202.607 50.0963V46.3379V42.5795H203.67H204.733V46.4978ZM207.673 43.0193C209.906 43.8989 209.303 46.178 206.681 46.7377C205.477 46.9776 205.477 46.9776 206.256 46.3779C207.107 45.6582 207.319 43.8589 206.611 43.0592C206.079 42.4595 206.256 42.4595 207.673 43.0193ZM213.236 46.4978V50.3762L211.996 50.2563L210.756 50.0963V46.3379V42.5795H211.996H213.236V46.4978ZM216.176 43.0193C217.842 43.659 218.054 45.4583 216.566 45.978C215.574 46.3379 215.716 46.9376 217.204 48.6569L218.515 50.1763H217.31C216.283 50.1363 215.822 49.8164 214.724 48.377C213.59 46.8977 213.484 46.5778 214.015 46.5778C214.405 46.5778 214.866 46.3779 215.114 46.098C215.751 45.3783 215.645 43.4991 214.936 43.0193C214.086 42.4595 214.795 42.4595 216.176 43.0193ZM222.802 43.3791C221.916 44.4987 221.703 47.3375 222.412 48.8968C223.156 50.4962 222.483 50.6561 221.101 49.2167C219.33 47.3375 219.542 44.8185 221.632 43.3791C223.12 42.3795 223.616 42.3396 222.802 43.3791ZM227.266 43.4991C229.958 45.5382 229.25 49.1367 225.884 50.3362C225.104 50.6161 225.104 50.6161 225.99 49.6165C227.159 48.2971 227.23 45.2184 226.132 43.619C225.246 42.3396 225.671 42.2996 227.266 43.4991ZM231.021 43.4591C230.242 44.3787 229.817 44.2588 230.206 43.1792C230.313 42.8593 230.702 42.5795 231.092 42.5795C231.801 42.5795 231.801 42.6194 231.021 43.4591ZM235.202 46.3779V50.1763H234.139H233.076V46.3779V42.5795H234.139H235.202V46.3779ZM238.107 43.1792C238.426 44.2188 237.965 44.2987 237.186 43.4191C236.442 42.5795 236.442 42.5795 237.15 42.5795C237.54 42.5795 237.965 42.8593 238.107 43.1792ZM242.323 43.3391C241.154 44.7785 241.154 48.2171 242.323 49.5366C242.819 50.1363 242.819 50.1763 242.287 50.1763C241.295 50.1763 240.02 48.9368 239.63 47.5774C239.134 45.8981 239.843 44.0988 241.331 43.2192C242.642 42.3795 243.031 42.4195 242.323 43.3391ZM246.362 43.1792C248.665 44.5386 249.161 47.0976 247.46 49.0168C246.893 49.6565 246.149 50.1763 245.83 50.1763C245.299 50.1763 245.299 50.0963 245.795 49.2967C246.61 47.9772 246.539 44.9385 245.618 43.619C244.803 42.4195 244.909 42.3396 246.362 43.1792ZM250.578 43.579C250.117 44.0988 249.657 44.3787 249.621 44.1388C249.373 43.3791 249.905 42.5795 250.649 42.5795C251.393 42.5795 251.393 42.5795 250.578 43.579ZM254.688 46.3379V50.0963L253.625 50.2563L252.562 50.3762V46.4978V42.5795H253.625H254.688V46.3379ZM257.557 43.1792C257.947 44.2588 257.522 44.3787 256.742 43.4591C255.963 42.6194 255.963 42.5795 256.672 42.5795C257.061 42.5795 257.451 42.8593 257.557 43.1792ZM262.376 44.3787C262.907 45.3783 263.509 46.178 263.687 46.178C264.253 46.178 265.919 43.4591 265.671 42.9793C265.564 42.7394 265.777 42.5795 266.237 42.5795C266.981 42.5795 266.981 42.6194 265.989 44.0588C265.423 44.8985 264.749 45.8181 264.501 46.138C264.147 46.5378 264.041 47.3375 264.147 48.537L264.324 50.3762L263.013 50.2563C261.809 50.0963 261.738 50.0563 261.88 48.7369C261.986 47.6973 261.773 46.9776 260.817 45.4982C258.939 42.5395 258.939 42.5795 260.25 42.5795C261.242 42.6194 261.561 42.8593 262.376 44.3787ZM271.693 46.3779V50.1763H270.453H269.213V46.3779V42.5795H270.453H271.693V46.3779ZM275.307 43.4591C275.98 44.0988 275.839 45.6982 275.095 46.178C274.705 46.3779 273.961 46.5778 273.394 46.5378C272.437 46.5378 272.437 46.4978 273.217 46.178C274.173 45.7381 274.244 44.3787 273.394 43.2592C272.756 42.4595 272.792 42.4595 273.819 42.7394C274.386 42.8993 275.095 43.2192 275.307 43.4591ZM279.842 46.3779V50.1763H278.46C277.362 50.1763 277.149 50.0563 277.468 49.6965C277.964 49.1367 278.035 45.0584 277.539 43.619C277.22 42.6194 277.256 42.5795 278.531 42.5795H279.842V46.3779ZM284.023 43.3791C284.129 43.8189 284.129 44.1788 284.023 44.1788C283.916 44.1788 283.456 43.8189 282.96 43.3791L282.039 42.5795H282.924C283.527 42.5795 283.881 42.8593 284.023 43.3791ZM282.145 46.3779V47.8173L281.295 47.0976C280.48 46.4179 280.444 46.3779 281.118 46.018C281.472 45.8181 281.791 45.4982 281.791 45.2983C281.791 45.1384 281.862 44.9785 281.968 44.9785C282.074 44.9785 282.145 45.6182 282.145 46.3779ZM284.377 49.3766C284.235 49.8964 283.881 50.1763 283.314 50.1763H282.428L283.243 49.3766C284.342 48.377 284.59 48.377 284.377 49.3766Z" fill="#F5F5F5"/>
</g>
<defs>
<clipPath id="clip0_211_1215">
<rect width="92.0263" height="58.7755" fill="white" transform="translate(200.393 16.9902)"/>
</clipPath>
</defs>
</svg>
