<svg width="250" height="59" viewBox="0 0 250 59" fill="none" xmlns="http://www.w3.org/2000/svg">
<rect x="5.60547" y="4.20996" width="238.27" height="53.2183" fill="#1B1E1F"/>
<rect x="138.914" y="4.20996" width="104.964" height="53.2183" fill="#E4A65D"/>
<path d="M1.90994 1.52384C1.82688 1.6842 1.66077 14.3524 1.57771 29.6664L1.45312 57.5283H124.585H247.718V29.4659V1.40358L124.918 1.32339C57.3506 1.28331 2.03453 1.36348 1.90994 1.52384ZM47.1761 11.1051C47.9651 11.8668 47.716 13.1096 46.304 15.2343C45.0581 17.1185 43.6046 17.6397 39.4518 17.6397H36.2541L35.382 20.7265C34.9252 22.4504 33.4717 27.6218 32.1843 32.2722C30.8969 36.8824 29.4849 41.8936 29.0696 43.417C27.9484 47.466 28.0314 47.4259 22.6327 47.2254C17.4416 47.0651 15.3652 46.3435 14.0778 44.339C12.832 42.3746 13.1227 40.2499 15.822 30.5484C17.234 25.5372 18.6044 20.6063 18.8951 19.5238L19.3935 17.6397H15.3652C10.6309 17.6397 9.71731 17.2388 10.1741 15.3145C10.2987 14.5929 11.1293 13.31 12.0014 12.4281L13.5379 10.8245L21.3868 10.7042C41.7359 10.3835 46.5116 10.4637 47.1761 11.1051ZM63.7875 11.4659C65.947 12.5884 66.9437 13.9916 67.1514 16.3167C67.4421 19.0428 66.7361 19.6441 63.4553 19.6441H60.9221L62.334 20.5662C65.158 22.3702 65.3656 24.3746 63.5799 31.0695C60.6729 41.8134 59.2609 46.3435 58.638 46.7844C57.8074 47.4259 51.1213 47.466 48.8788 46.8646C46.5947 46.2633 44.892 44.6196 44.3937 42.5751C43.9784 40.731 43.9784 40.6909 48.0482 26.4593C49.0449 22.8112 50.1246 19.7243 50.3738 19.5639C50.6645 19.4036 52.0765 19.2432 53.5715 19.2432H56.2709L54.7758 18.4014C52.0765 16.878 50.9967 12.9091 52.7825 11.1853C53.613 10.3835 54.0283 10.3434 57.932 10.5038C61.0882 10.6241 62.5832 10.9047 63.7875 11.4659ZM90.1582 20.1653C92.6914 21.4481 94.1034 24.094 93.4805 26.3791C93.0237 27.9025 92.9406 27.9827 90.9057 28.143C87.4588 28.4637 86.8359 29.3858 84.7595 36.8023C82.0186 46.584 81.894 46.8646 80.6897 47.1452C80.1498 47.3056 77.8657 47.3056 75.6647 47.2254C70.2245 46.9849 68.4387 46.0227 67.2759 42.8557C66.7776 41.5328 66.8607 40.8913 68.065 36.4415C70.8474 25.8178 72.6747 19.8847 73.173 19.5639C73.4637 19.4036 76.9936 19.2432 81.0219 19.2432C87.8326 19.2432 88.4555 19.3234 90.1582 20.1653ZM132.891 19.8446C134.552 20.6864 135.798 22.3301 135.798 23.7332C135.798 24.8958 133.182 35.1185 131.022 42.4949C130.399 44.5795 129.61 46.5439 129.237 46.8245C128.697 47.2254 125.499 47.3056 114.203 47.2254L99.8759 47.1052L97.9656 46.0227C94.6018 44.0985 94.3526 41.6129 96.7612 33.4749C97.4672 31.0294 98.5885 27.1007 99.253 24.7354C99.8759 22.3702 100.665 20.1653 100.914 19.8446C101.662 18.9626 131.105 18.9626 132.891 19.8446ZM146.388 29.5862V33.4749L145.142 33.3546L143.896 33.1942V29.4259V25.6575H145.142H146.388V29.5862ZM149.835 26.0985C152.451 26.9804 151.745 29.2655 148.672 29.8267C147.26 30.0673 147.26 30.0673 148.174 29.4659C149.17 28.7443 149.419 26.9403 148.589 26.1386C147.966 25.5372 148.174 25.5372 149.835 26.0985ZM156.355 29.5862V33.4749L154.901 33.3546L153.448 33.1942V29.4259V25.6575H154.901H156.355V29.5862ZM159.802 26.0985C161.753 26.7399 162.003 28.5439 160.258 29.0651C159.096 29.4259 159.262 30.0272 161.006 31.751L162.543 33.2744H161.131C159.926 33.2343 159.386 32.9136 158.099 31.4704C156.77 29.9871 156.645 29.6664 157.268 29.6664C157.725 29.6664 158.265 29.4659 158.556 29.1853C159.303 28.4637 159.179 26.5795 158.348 26.0985C157.351 25.5372 158.182 25.5372 159.802 26.0985ZM167.567 26.4593C166.529 27.5818 166.28 30.4281 167.111 31.9916C167.983 33.5951 167.194 33.7555 165.574 32.3123C163.498 30.4281 163.747 27.9025 166.197 26.4593C167.941 25.457 168.523 25.4169 167.567 26.4593ZM172.8 26.5795C175.956 28.6241 175.126 32.2321 171.18 33.4348C170.267 33.7154 170.267 33.7154 171.305 32.7132C172.676 31.3902 172.759 28.3034 171.471 26.6998C170.433 25.4169 170.931 25.3769 172.8 26.5795ZM177.202 26.5394C176.288 27.4615 175.79 27.3412 176.247 26.2588C176.372 25.9381 176.828 25.6575 177.285 25.6575C178.116 25.6575 178.116 25.6976 177.202 26.5394ZM182.102 29.4659V33.2744H180.857H179.611V29.4659V25.6575H180.857H182.102V29.4659ZM185.508 26.2588C185.882 27.3011 185.342 27.3813 184.428 26.4994C183.556 25.6575 183.556 25.6575 184.387 25.6575C184.843 25.6575 185.342 25.9381 185.508 26.2588ZM190.45 26.4192C189.079 27.8624 189.079 31.31 190.45 32.633C191.031 33.2343 191.031 33.2744 190.408 33.2744C189.245 33.2744 187.75 32.0317 187.294 30.6686C186.712 28.9849 187.543 27.1809 189.287 26.2989C190.824 25.457 191.28 25.4971 190.45 26.4192ZM195.184 26.2588C197.883 27.6218 198.465 30.1876 196.471 32.1118C195.807 32.7533 194.935 33.2744 194.561 33.2744C193.938 33.2744 193.938 33.1942 194.52 32.3925C195.475 31.0695 195.392 28.0227 194.312 26.6998C193.357 25.4971 193.481 25.4169 195.184 26.2588ZM200.126 26.6597C199.586 27.1809 199.046 27.4615 199.005 27.221C198.714 26.4593 199.337 25.6575 200.209 25.6575C201.081 25.6575 201.081 25.6575 200.126 26.6597ZM204.943 29.4259V33.1942L203.697 33.3546L202.452 33.4749V29.5862V25.6575H203.697H204.943V29.4259ZM208.307 26.2588C208.764 27.3412 208.266 27.4615 207.352 26.5394C206.438 25.6976 206.438 25.6575 207.269 25.6575C207.726 25.6575 208.182 25.9381 208.307 26.2588ZM213.955 27.4615C214.578 28.4637 215.284 29.2655 215.491 29.2655C216.156 29.2655 218.108 26.5394 217.817 26.0584C217.692 25.8178 217.942 25.6575 218.482 25.6575C219.354 25.6575 219.354 25.6976 218.191 27.1408C217.526 27.9827 216.737 28.9047 216.447 29.2254C216.031 29.6263 215.907 30.4281 216.031 31.6308L216.239 33.4749L214.702 33.3546C213.29 33.1942 213.207 33.1541 213.374 31.8312C213.498 30.7889 213.249 30.0673 212.128 28.584C209.927 25.6174 209.927 25.6575 211.463 25.6575C212.626 25.6976 213 25.9381 213.955 27.4615ZM224.877 29.4659V33.2744H223.423H221.97V29.4659V25.6575H223.423H224.877V29.4659ZM229.113 26.5394C229.902 27.1809 229.736 28.7844 228.864 29.2655C228.407 29.4659 227.535 29.6664 226.87 29.6263C225.749 29.6263 225.749 29.5862 226.663 29.2655C227.784 28.8245 227.867 27.4615 226.87 26.339C226.123 25.5372 226.164 25.5372 227.369 25.8178C228.033 25.9782 228.864 26.2989 229.113 26.5394ZM234.429 29.4659V33.2744H232.809C231.522 33.2744 231.272 33.1541 231.646 32.7933C232.227 32.2321 232.311 28.143 231.729 26.6998C231.355 25.6976 231.397 25.6575 232.892 25.6575H234.429V29.4659ZM239.329 26.4593C239.453 26.9002 239.453 27.261 239.329 27.261C239.204 27.261 238.664 26.9002 238.083 26.4593L237.003 25.6575H238.042C238.747 25.6575 239.163 25.9381 239.329 26.4593ZM237.128 29.4659V30.9092L236.131 30.1876C235.176 29.506 235.135 29.4659 235.924 29.1051C236.339 28.9047 236.713 28.584 236.713 28.3835C236.713 28.2232 236.796 28.0628 236.92 28.0628C237.045 28.0628 237.128 28.7043 237.128 29.4659ZM239.744 32.4726C239.578 32.9938 239.163 33.2744 238.498 33.2744H237.46L238.415 32.4726C239.703 31.4704 239.993 31.4704 239.744 32.4726Z" fill="#F5F5F5"/>
<path d="M14.0368 12.2679C12.9571 12.8291 11.2129 15.1142 11.2129 15.9962C11.2129 16.2768 12.7494 16.4371 16.1548 16.4371H21.1382L20.7229 17.72C18.4389 25.1766 14.5352 40.2902 14.5352 41.573C14.5352 42.936 14.7843 43.4171 15.9887 44.4193C17.6498 45.8224 19.5186 46.2233 24.0452 46.0229L27.1183 45.9026L28.115 42.2946C29.9838 35.4394 34.552 19.0429 34.9672 17.72L35.3825 16.4371H39.2032C42.4839 16.4371 43.2314 16.3169 44.1866 15.5953C45.2663 14.7935 46.5122 12.8692 46.5122 12.0273C46.5122 11.7467 41.6534 11.6265 30.8559 11.6665C18.2312 11.6665 14.9505 11.7868 14.0368 12.2679Z" fill="#1B1E1F"/>
<path d="M53.4469 11.9073C52.7409 12.5487 53.1978 15.2347 54.1944 16.3572C55.5649 17.9206 57.9735 18.522 62.2925 18.3616C65.6563 18.2414 65.8224 18.2013 65.947 17.2792C66.2793 15.0342 64.8673 13.11 62.1679 12.1478C60.756 11.6667 53.9037 11.4663 53.4469 11.9073Z" fill="#1B1E1F"/>
<path d="M50.8715 20.9275C50.4977 21.8896 46.8432 35.0789 46.0127 38.3261C45.2236 41.4531 45.2236 41.6535 45.8881 43.0566C46.9678 45.2615 48.5044 45.8228 53.6124 46.0232L58.0144 46.1836L59.1772 42.0544C59.8001 39.7693 61.046 35.3595 61.9181 32.2727C62.8317 29.1858 63.5377 26.0589 63.5377 25.3373C63.5377 23.5333 62.4165 21.8094 60.7968 21.0477C59.0942 20.286 51.1622 20.1658 50.8715 20.9275Z" fill="#1B1E1F"/>
<path d="M73.796 20.7267C73.6715 20.887 72.3425 25.5774 70.806 31.1097C68.8541 38.0852 68.0651 41.5329 68.2727 42.2946C68.688 43.818 70.2246 45.1409 72.0934 45.6621C74.2113 46.2233 80.4406 46.2233 80.7728 45.6621C80.939 45.4215 81.9772 42.014 83.0569 38.0852C84.1367 34.1565 85.3825 30.3881 85.7563 29.7467C86.6699 28.2634 89.1616 26.8603 90.8643 26.8603C91.6118 26.8603 92.1932 26.6198 92.3593 26.2189C92.8161 25.0563 91.6949 22.4505 90.3659 21.5284C89.1616 20.7267 88.4972 20.6465 81.5619 20.5262C77.409 20.446 73.9206 20.5262 73.796 20.7267Z" fill="#1B1E1F"/>
<path d="M101.537 20.9266C101.454 21.2072 100.707 23.8932 99.9175 26.8598C99.1284 29.8264 98.0072 33.9956 97.4258 36.0803C96.0138 41.1716 96.0138 42.8553 97.5088 44.1783C99.3776 45.9021 101.039 46.1025 115.283 46.1025H128.614L130.192 40.5702C131.064 37.5636 132.185 33.5947 132.725 31.7907C134.469 25.7774 134.76 23.9734 134.096 22.6504C133.016 20.4856 132.684 20.4455 116.57 20.4455C105.067 20.4455 101.662 20.5658 101.537 20.9266ZM126.247 25.0558C126.247 25.176 125.458 28.1025 124.544 31.5903C122.011 40.8509 121.139 41.6927 114.203 41.6927C111.919 41.6927 110.05 41.6126 110.05 41.4923C110.05 41.4121 110.632 39.2874 111.338 36.8019C112.044 34.3163 112.791 31.5903 112.999 30.7083C113.663 28.0224 115.325 25.7774 117.11 25.1359C117.941 24.8553 126.247 24.7751 126.247 25.0558Z" fill="#1B1E1F"/>
<path d="M116.279 27.1406C115.199 28.1028 114.784 29.1451 113.372 34.1963C112.458 37.4435 111.711 40.2097 111.711 40.3299C111.711 40.7308 118.231 40.4502 119.145 39.9691C120.847 39.1273 121.595 37.6841 123.131 32.232C123.92 29.3054 124.585 26.7397 124.585 26.4992C124.585 26.2186 123.38 26.0582 121.055 26.0582C117.816 26.0582 117.442 26.1384 116.279 27.1406Z" fill="#F5F5F5"/>
</svg>
