<svg width="290" height="73" viewBox="0 0 290 73" fill="none" xmlns="http://www.w3.org/2000/svg">
<rect x="0.5" y="0.5" width="289" height="71.2874" fill="#1B1E1F" stroke="black"/>
<rect y="45.0732" width="290" height="27.2141" fill="#DC9E53"/>
<rect x="195.602" y="22.9619" width="94.3988" height="27.2141" fill="#DC9E53"/>
<rect x="187.098" width="94.3988" height="21.261" fill="#DC9E53"/>
<g clip-path="url(#clip0_211_1186)">
<path d="M0 36.1434V72.2871H145H290V36.1434V-0.000289917H145H0V36.1434ZM140.969 10.1922C140.822 13.3006 140.429 15.5415 140.036 15.9029C139.642 16.3367 138.61 15.4692 136.988 13.3006C135.661 11.5657 134.383 10.1199 134.137 10.1199C133.892 10.1199 133.695 11.2765 133.695 12.65C133.695 14.4572 133.4 15.3246 132.663 15.9752C131.631 16.7704 131.631 16.6981 131.975 12.3609C132.319 8.0959 132.269 8.02361 131.041 7.5176C130.353 7.30074 129.91 6.79473 130.058 6.43329C130.647 5.05983 132.908 5.92728 135.71 8.6742C137.332 10.2645 138.758 11.5657 138.905 11.5657C139.003 11.5657 139.102 10.4091 139.102 9.03564C139.102 6.9393 139.937 5.20441 141.019 5.05983C141.117 5.05983 141.068 7.37303 140.969 10.1922ZM145.393 8.24048C146.229 11.638 147.851 14.4572 148.932 14.4572C149.964 14.4572 151.39 11.132 151.39 8.74649C151.39 7.22845 153.159 5.2767 153.749 6.14414C154.241 6.86702 151.832 12.9392 150.308 14.8909C148.293 17.3487 147.114 17.0595 144.951 13.7343C142.788 10.4091 142.051 7.44531 143.083 6.43329C144.263 5.34898 144.803 5.71042 145.393 8.24048ZM162.597 6.9393C166.136 10.5537 160.581 18.5053 156.305 15.9029C153.995 14.4572 153.749 10.7705 155.863 8.81878C156.797 7.95132 156.846 8.02361 156.6 9.2525C156.158 11.2765 156.747 12.9392 158.222 14.0235C159.942 15.2524 161.171 14.7463 161.515 12.5777C161.958 10.1199 160.09 7.22845 158.173 7.22845C157.337 7.22845 156.846 6.9393 157.042 6.50558C157.534 5.34898 161.368 5.63813 162.597 6.9393ZM168.937 9.61394C170.51 13.0837 170.51 13.0837 171.198 11.4211C171.592 10.4814 172.083 9.03564 172.23 8.16819C172.525 6.86702 174.737 5.20441 175.229 5.92728C175.376 6.14414 171.886 13.4452 170.559 15.6861C169.724 17.2041 169.38 16.8427 167.708 12.65C166.824 10.4814 165.644 8.24048 165.103 7.66218C164.366 6.9393 164.268 6.57787 164.759 6.28872C166.234 5.34898 167.414 6.28872 168.937 9.61394ZM184.322 7.22845C186.141 9.90309 185.256 12.9392 181.815 15.5415C179.8 17.1318 177.195 16.409 176.163 14.0958C175.327 12.144 175.819 9.97538 177.392 8.74649C178.178 8.0959 178.227 8.24048 178.031 9.75851C177.785 11.7826 178.62 13.5897 180.144 14.4572C181.619 15.3246 182.847 14.0235 182.847 11.5657C182.847 9.03564 181.324 7.22845 179.161 7.22845C178.031 7.22845 177.834 7.01159 178.424 6.50558C179.751 5.20441 183.241 5.63813 184.322 7.22845ZM193.317 12.0717C192.973 12.2163 192.678 13.3729 192.678 14.5295C192.678 15.6861 192.481 16.6258 192.186 16.6258C191.941 16.6258 191.695 15.6861 191.695 14.5295C191.695 13.3729 191.4 12.2163 191.105 12.0717C190.761 11.8548 191.253 11.7103 192.186 11.7103C193.12 11.7103 193.612 11.8548 193.317 12.0717ZM195.529 13.156L196.069 14.8186V13.156C196.168 10.3368 197.593 11.2043 197.593 14.0958C197.593 16.409 196.659 17.8547 196.561 15.6861C196.561 14.9632 196.463 14.9632 196.266 15.6861C195.922 17.0595 195.136 16.8427 195.086 15.3246C195.086 14.3126 194.988 14.3126 194.644 15.5415C194.3 16.6981 194.202 16.4812 194.202 14.2403C194.153 11.2043 194.742 10.7705 195.529 13.156ZM24.0847 30.8664C26.1 35.7097 27.9186 39.6855 28.1153 39.7578C28.2627 39.7578 33.2271 35.7097 39.1254 30.7219L49.8407 21.6859H55.1492C58.0492 21.6859 60.4576 21.9028 60.4576 22.1919C60.4576 22.698 44.6797 36.1434 37.6017 41.7095C34.2102 44.3119 30.0814 45.5408 24.2814 45.5408C19.3661 45.5408 15.3356 44.4565 14.1068 42.8661C13.0254 41.3481 5.40678 23.5654 5.40678 22.4088C5.40678 21.9028 7.86441 21.6859 12.878 21.8305L20.3492 22.0474L24.0847 30.8664ZM79.6271 22.0474C79.6271 22.3365 79.2831 23.4208 78.8898 24.5774L78.1034 26.7461H71.5169C67.8797 26.7461 64.8814 26.6015 64.8814 26.3846C64.8814 26.0955 65.2254 25.0112 65.6186 23.8546L66.4051 21.6859H72.9915C76.6288 21.6859 79.6271 21.8305 79.6271 22.0474ZM103.712 30.8664C105.727 35.7097 107.546 39.6855 107.742 39.6855C107.89 39.7578 112.854 35.7097 118.753 30.7219L129.468 21.6859H134.776C137.676 21.6859 140.085 21.9028 140.085 22.1919C140.085 22.698 119.785 39.9024 115.705 42.9384C110.937 46.4082 96.3881 46.3359 93.7339 42.8661C92.7017 41.4204 85.0339 23.4931 85.0339 22.4088C85.0339 21.9028 87.7373 21.6859 92.5542 21.8305L100.025 22.0474L103.712 30.8664ZM189.729 22.6257C190.663 23.1317 191.498 23.9991 191.597 24.6497C191.646 25.3003 190.515 29.5653 189.041 34.2639C186.583 41.8541 186.141 42.7939 184.469 43.9505C182.847 45.0348 180.292 45.1793 163.088 45.3962C143.378 45.6131 139.986 45.2516 139.397 43.0107C139.249 42.4324 140.331 38.1675 141.756 33.5411C144.459 24.722 145.147 23.6377 148.686 22.3365C151.292 21.3968 187.812 21.6859 189.729 22.6257ZM75.2525 36.288C74.0237 40.4084 72.7949 44.1673 72.5983 44.601C72.3034 45.2516 70.3373 45.5408 65.5695 45.5408C61.9322 45.5408 58.9831 45.3962 58.9831 45.2516C58.9831 45.107 59.8678 42.071 60.9983 38.5289C62.0797 35.0591 63.2102 31.4447 63.4559 30.505C63.8492 28.987 64.0949 28.9147 70.7305 28.9147H77.5627L75.2525 36.288ZM225.463 37.0109C228.805 41.6373 224.037 47.348 219.024 44.7456C216.763 43.589 215.632 40.6975 216.566 38.4566C218.139 34.6977 223.202 33.8302 225.463 37.0109ZM236.178 36.0711C236.571 37.4446 236.031 38.0229 235.342 37.0109C234.998 36.5048 234.359 36.1434 233.868 36.1434C233.131 36.1434 232.983 36.794 232.983 40.4084C232.983 43.1553 233.18 44.8179 233.622 45.0348C233.917 45.2516 233.131 45.4685 231.853 45.4685C229.69 45.5408 229.542 45.4685 230.23 44.3842C230.722 43.6613 231.017 41.9987 231.017 39.6855C231.017 36.5048 230.919 36.1434 229.886 36.1434C229.247 36.1434 228.51 36.5048 228.166 37.0109C227.724 37.6614 227.576 37.5892 227.576 36.4326C227.576 35.2037 227.92 35.0591 231.754 35.0591C234.851 35.0591 235.981 35.3483 236.178 36.0711ZM246.107 37.0109C249.449 41.6373 244.681 47.348 239.668 44.7456C237.407 43.589 236.276 40.6975 237.21 38.4566C238.783 34.6977 243.846 33.8302 246.107 37.0109ZM256.822 36.0711C256.969 36.6494 256.92 37.3 256.773 37.5169C256.576 37.7337 256.331 37.5169 256.232 37.0109C256.085 36.5771 255.446 36.1434 254.807 36.1434C253.725 36.1434 253.627 36.4326 253.627 40.1192C253.627 43.083 253.824 44.1673 254.512 44.7456C255.151 45.3239 254.708 45.4685 252.644 45.4685C250.58 45.4685 250.137 45.3239 250.825 44.7456C251.464 44.1673 251.661 43.083 251.661 40.1192C251.661 36.4326 251.563 36.1434 250.531 36.1434C249.892 36.1434 249.154 36.5048 248.81 37.0109C248.368 37.6614 248.22 37.5892 248.22 36.4326C248.22 35.2037 248.564 35.0591 252.398 35.0591C255.495 35.0591 256.625 35.3483 256.822 36.0711ZM204.868 36.288C206.293 38.3843 204.769 41.2035 202.214 41.2035C200.886 41.2035 200.542 41.4927 200.542 42.6493C200.542 43.3722 200.936 44.3842 201.427 44.7456C202.066 45.3239 201.722 45.4685 199.854 45.5408C197.839 45.5408 197.544 45.3962 198.085 44.4565C198.429 43.8059 198.625 41.8541 198.478 39.3963L198.331 35.4205H201.329C202.951 35.4205 204.524 35.782 204.868 36.288ZM213.519 35.8543C214.551 36.4326 214.502 38.818 213.469 39.6855C212.683 40.3361 212.732 40.6252 214.256 42.9384C215.583 44.9625 215.78 45.5408 215.092 45.5408C213.912 45.5408 212.241 44.1673 211.454 42.5047C211.11 41.7818 210.619 41.2035 210.324 41.2035C209.636 41.2035 209.783 44.6733 210.52 45.0348C210.815 45.2516 210.029 45.4685 208.653 45.4685C206.736 45.4685 206.392 45.3239 207.08 44.7456C208.063 43.8782 208.259 37.6614 207.325 36.288C206.883 35.6374 207.424 35.4205 209.734 35.4205C211.405 35.4205 213.076 35.6374 213.519 35.8543ZM262.13 37.7337L263.064 40.0469L263.949 38.312C264.441 37.3723 264.736 36.288 264.637 35.9988C264.49 35.7097 264.932 35.4205 265.571 35.4205C266.751 35.4205 266.751 35.4205 265.129 38.0229C263.31 40.8421 262.966 43.589 264.342 44.7456C264.981 45.3239 264.637 45.4685 262.77 45.5408C260.853 45.5408 260.459 45.3239 260.902 44.6733C261.934 43.1553 261.541 40.6252 259.82 38.0229L258.198 35.4205H259.722C260.902 35.4205 261.442 35.9265 262.13 37.7337ZM271.42 38.0229C271.224 40.4084 271.322 40.5529 272.354 40.3361C273.829 40.0469 274.173 37.6614 272.993 36.288C272.158 35.4205 272.207 35.3483 273.73 35.5651C276.09 35.8543 276.876 37.9506 275.303 39.8301C274.664 40.5529 273.534 41.2035 272.747 41.2035C271.666 41.2035 271.322 41.565 271.322 42.6493C271.322 43.3722 271.715 44.3842 272.207 44.7456C272.846 45.3239 272.502 45.4685 270.634 45.5408C268.619 45.5408 268.324 45.3962 268.864 44.4565C269.208 43.8059 269.405 41.8541 269.258 39.3963C269.11 35.5651 269.159 35.4205 270.339 35.4205C271.519 35.4205 271.617 35.6374 271.42 38.0229ZM284.298 36.5048C284.593 37.7337 283.856 38.0229 283.364 36.8663C283.217 36.4326 282.431 36.1434 281.595 36.1434C280.415 36.1434 280.169 36.4326 280.169 37.9506C280.169 39.3241 280.415 39.7578 281.3 39.7578C281.939 39.7578 282.676 39.3963 283.02 38.8903C283.463 38.2397 283.61 38.4566 283.61 40.1192C283.61 41.7818 283.463 41.9987 283.02 41.3481C282.676 40.8421 281.89 40.4807 281.251 40.4807C280.268 40.4807 280.12 40.7698 280.268 42.4324C280.464 44.8902 282.086 45.4685 283.905 43.8059C285.183 42.5047 285.232 42.577 284.79 44.3842C284.544 45.3239 283.708 45.5408 280.71 45.5408C278.449 45.5408 277.22 45.2516 277.614 44.8902C278.105 44.4565 278.253 43.0107 278.105 39.8301L277.958 35.4205H280.956C283.217 35.4205 284.053 35.7097 284.298 36.5048ZM91.178 54.2153C90.9322 55.2273 91.0797 55.661 91.6203 55.661C92.0627 55.661 92.4068 55.2273 92.4068 54.649C92.4068 53.5647 93.2915 52.4081 93.6847 52.9141C94.0288 53.4924 92.2593 59.9983 91.7678 59.9983C91.522 59.9983 91.4237 59.3477 91.5712 58.5525C91.7186 57.6128 91.5712 57.1068 91.0797 57.1068C90.6864 57.1068 90.2441 57.7573 90.0966 58.5525C89.9492 59.3477 89.5559 59.9983 89.1627 59.9983C88.622 59.9983 88.622 59.5645 89.1627 57.6128C89.5068 56.3839 89.9492 54.7213 90.0966 53.9984C90.539 52.2635 91.5712 52.4081 91.178 54.2153ZM98.3051 53.4924C98.3051 53.8538 97.7153 54.2875 96.978 54.2875C95.7983 54.4321 95.7492 54.4321 96.7322 54.7213C98.0102 55.0827 97.7153 56.3839 96.339 56.3839C95.8475 56.3839 95.3559 56.8899 95.1593 57.4682C94.9627 58.1911 95.2085 58.5525 95.8475 58.5525C96.3881 58.5525 96.8305 58.8417 96.8305 59.2754C96.8305 59.6368 96.0441 59.9983 95.1593 59.9983H93.439L94.078 57.6128C94.422 56.3839 94.8644 54.7213 95.0119 53.9984C95.3559 52.6972 98.3051 52.1912 98.3051 53.4924ZM101.549 54.3598C101.402 55.2996 101.254 56.8899 101.254 57.9742C101.254 59.3477 101.008 59.9983 100.468 59.9983C100.075 59.9983 99.878 59.6368 100.025 59.2754C100.468 58.2634 99.1407 58.3356 98.4034 59.42C97.1746 61.2271 97.322 59.3477 98.6492 56.167C100.124 52.5527 102.139 51.3238 101.549 54.3598ZM104.105 55.0104L103.859 57.2513L104.744 55.5887C105.236 54.649 105.678 53.637 105.678 53.2755C105.678 52.9864 106.022 52.7695 106.415 52.7695C106.956 52.7695 106.759 53.7092 105.629 56.3839C103.859 60.6488 102.729 61.0826 102.729 57.5405C102.729 54.5767 103.122 52.7695 103.81 52.7695C104.105 52.7695 104.203 53.7815 104.105 55.0104ZM108.775 53.637C108.971 54.3598 109.119 54.3598 109.659 53.637C110.003 53.2032 110.593 52.7695 110.986 52.7695C111.429 52.7695 111.134 53.7092 110.151 55.2996C109.315 56.7453 108.627 58.3356 108.627 58.9139C108.627 59.4922 108.283 59.9983 107.841 59.9983C107.3 59.9983 107.153 59.6368 107.349 58.8417C107.497 58.1911 107.644 56.6007 107.644 55.2273C107.644 52.8418 108.332 51.9021 108.775 53.637ZM117.18 53.4201C117.622 54.4321 116.442 58.5525 115.508 59.2754C114.673 59.926 112.559 60.2874 112.559 59.7814C112.559 59.6368 112.903 58.0465 113.346 56.167C114.034 53.2032 114.28 52.7695 115.508 52.7695C116.295 52.7695 117.032 53.0587 117.18 53.4201ZM119.195 55.661C118.605 58.0465 118.605 58.5525 119.146 58.5525C119.539 58.5525 120.178 57.2513 120.62 55.661C121.653 51.8298 122.537 51.9021 121.603 55.8056C120.817 59.0585 120.227 59.9983 118.802 59.9983C117.524 59.9983 117.327 58.4802 118.212 55.4441C119.244 51.8298 120.08 52.0466 119.195 55.661ZM128.288 53.9984C128.337 55.2273 128.337 55.2273 128.829 53.9984C129.075 53.3478 129.664 52.7695 130.058 52.7695C130.647 52.7695 130.549 53.2755 129.615 54.9381C128.927 56.0947 128.239 57.7573 128.042 58.5525C127.551 60.7211 126.666 60.3597 127.01 58.1188C127.895 53.2032 125.388 52.2635 124.405 57.179C124.061 58.6971 123.569 59.9983 123.324 59.9983C122.783 59.9983 122.931 58.1188 123.668 55.3719C123.815 54.7213 123.717 54.2153 123.422 54.2153C123.127 54.2153 122.881 53.8538 122.881 53.4924C122.881 53.0587 124.11 52.7695 125.585 52.7695C127.846 52.7695 128.288 52.9864 128.288 53.9984ZM136.497 53.8538C136.644 54.5044 136.595 55.2273 136.398 55.5164C136.202 55.8056 135.907 55.5887 135.808 55.0827C135.415 53.5647 134.236 54.143 133.892 56.0224C133.498 58.3356 133.941 59.0585 134.924 57.8296C135.366 57.3236 135.858 57.1068 136.054 57.3959C136.497 58.1188 134.727 59.9983 133.597 59.9983C132.319 59.9983 132.024 58.3356 132.908 55.8056C133.99 52.7695 135.907 51.7575 136.497 53.8538ZM138.905 54.5044C138.758 55.4441 138.463 56.7453 138.315 57.3959C138.119 58.0465 138.266 58.5525 138.61 58.5525C138.905 58.5525 139.544 57.2513 139.937 55.661C140.38 54.0707 140.92 52.7695 141.166 52.7695C142.149 52.7695 140.822 58.3356 139.593 59.2754C137.283 61.0826 136.595 59.5645 137.676 55.0104C138.315 52.4081 139.347 51.9021 138.905 54.5044ZM145.492 53.9261C145.492 54.7213 145.197 54.9381 144.508 54.5767C143.378 54.0707 143.132 55.2996 144.263 55.9502C144.656 56.167 145 56.8176 145 57.4682C145 58.8417 142.886 60.3597 141.805 59.7091C140.675 59.1308 141.412 57.6851 142.592 58.1911C143.673 58.6971 143.869 57.4682 142.788 56.8176C141.854 56.3116 141.854 55.2996 142.837 53.9261C143.82 52.4081 145.492 52.4081 145.492 53.9261ZM149.915 53.4924C149.915 53.8538 149.571 54.2153 149.178 54.2153C148.785 54.2153 148.244 55.4441 147.9 57.1068C147.556 58.6971 147.015 59.9983 146.671 59.9983C146.131 59.9983 146.18 59.42 146.72 57.1068C147.114 55.5164 147.212 54.2153 146.966 54.2153C146.671 54.2153 146.475 53.8538 146.475 53.4924C146.475 53.0587 147.261 52.7695 148.195 52.7695C149.129 52.7695 149.915 53.0587 149.915 53.4924ZM153.651 53.8538C154.142 55.661 152.864 59.2754 151.586 59.7091C149.964 60.2874 149.276 59.42 149.669 57.179C150.308 53.4201 152.963 51.1792 153.651 53.8538ZM157.092 55.0827L156.797 57.4682L157.829 55.0827C158.419 53.8538 159.254 52.7695 159.746 52.7695C160.581 52.7695 160.581 52.9141 159.746 56.167C159.254 58.0465 158.615 59.7091 158.32 59.8537C157.927 60.0705 157.927 59.5645 158.271 58.1911C159.008 55.2273 158.861 55.0827 157.731 57.6128C156.453 60.5766 155.617 60.6488 155.912 57.8296C156.059 56.6007 156.059 55.661 155.961 55.661C155.863 55.661 155.519 56.6007 155.273 57.8296C154.978 58.9862 154.536 59.9983 154.29 59.9983C153.7 59.9983 153.7 60.1428 154.634 56.167C155.224 53.637 155.666 52.7695 156.403 52.7695C157.288 52.7695 157.386 53.0587 157.092 55.0827ZM166.824 53.4201C167.266 54.4321 166.086 58.5525 165.153 59.2754C163.825 60.2874 162.056 60.2151 162.351 59.0585C162.449 58.6248 162.842 56.9622 163.236 55.4441C163.776 53.2755 164.12 52.7695 165.202 52.7695C165.939 52.7695 166.676 53.0587 166.824 53.4201ZM171.542 53.4924C171.542 53.8538 170.953 54.2875 170.215 54.2875C169.036 54.4321 168.986 54.4321 169.969 54.7213C171.247 55.0827 170.953 56.3839 169.576 56.3839C169.085 56.3839 168.593 56.8899 168.397 57.4682C168.2 58.1911 168.446 58.5525 169.085 58.5525C169.625 58.5525 170.068 58.8417 170.068 59.2754C170.068 59.6368 169.281 59.9983 168.397 59.9983H166.676L167.315 57.6128C167.659 56.3839 168.102 54.7213 168.249 53.9984C168.593 52.6972 171.542 52.1912 171.542 53.4924ZM175.376 54.143C175.573 54.9381 175.278 55.0104 174.197 54.649L172.82 54.143L173.754 55.661C174.492 56.8176 174.59 57.4682 174.197 58.4079C173.459 60.0705 171.051 60.5043 171.051 58.9139C171.051 58.0465 171.395 57.9019 172.427 58.1911C173.656 58.6248 173.656 58.5525 172.919 57.6128C171.886 56.3839 171.788 54.8658 172.624 53.637C173.41 52.4804 175.081 52.7695 175.376 54.143ZM177.047 56.3839C176.605 58.4079 175.966 59.9983 175.573 59.9983C175.229 59.9983 175.032 59.5645 175.18 59.0585C175.278 58.6248 175.671 56.9622 176.015 55.4441C176.359 53.9984 176.9 52.7695 177.244 52.7695C177.686 52.7695 177.637 53.637 177.047 56.3839ZM181.864 54.2153C181.864 55.8056 181.078 56.167 180.734 54.7213C180.439 53.5647 179.653 54.7213 179.161 56.8899C178.915 58.1188 179.063 58.5525 179.603 58.5525C180.095 58.5525 180.242 58.1188 180.095 57.4682C179.898 56.7453 180.095 56.3839 180.832 56.3839C181.668 56.3839 181.766 56.673 181.422 57.9742C180.98 59.7814 179.112 60.5766 178.325 59.42C177.686 58.4802 178.178 55.3719 179.21 53.9261C180.292 52.2635 181.864 52.4804 181.864 54.2153ZM184.912 54.7213L185.108 56.7453L185.698 54.7213C186.681 51.3238 187.222 52.6249 186.386 56.3839C185.551 60.2874 184.371 61.2271 184.273 57.9742L184.224 56.0224L183.683 57.9742C183.388 59.1308 182.847 59.9983 182.553 59.9983C182.061 59.9983 182.061 59.3477 182.602 57.0345C183.781 52.1189 184.617 51.3238 184.912 54.7213Z" fill="#F5F5F5"/>
<path d="M155.567 32.6739C154.584 35.9991 153.65 39.1075 153.503 39.6135C153.306 40.3363 155.322 40.4809 163.432 40.3363L173.606 40.1195L175.72 33.3967L177.883 26.7463H167.659H157.435L155.567 32.6739Z" fill="#F5F5F5"/>
<path d="M219.81 36.5776C217.647 38.8185 218.876 44.8184 221.579 44.8184C224.086 44.8184 225.168 38.7462 223.054 36.5776C222.464 35.927 221.727 35.421 221.432 35.421C221.137 35.421 220.4 35.927 219.81 36.5776Z" fill="#F5F5F5"/>
<path d="M240.209 36.7222C238.439 39.6137 239.717 44.8184 242.224 44.8184C244.731 44.8184 245.812 38.7462 243.699 36.5776C242.273 35.0596 241.192 35.1318 240.209 36.7222Z" fill="#F5F5F5"/>
<path d="M200.543 38.3118C200.543 39.9745 200.74 40.4805 201.526 40.4805C202.558 40.4805 203.492 38.5287 203.148 37.0107C203.001 36.5769 202.362 36.1432 201.723 36.1432C200.74 36.1432 200.543 36.5047 200.543 38.3118Z" fill="#F5F5F5"/>
<path d="M209.881 38.3118C209.881 40.6973 210.815 41.2033 211.847 39.3961C212.633 37.9504 212.093 36.1432 210.864 36.1432C210.077 36.1432 209.881 36.6492 209.881 38.3118Z" fill="#F5F5F5"/>
<path d="M99.5341 56.3836C99.3867 56.745 99.485 57.1064 99.7307 57.1064C100.026 57.1064 100.271 56.745 100.271 56.3836C100.271 55.9498 100.173 55.6607 100.075 55.6607C99.9273 55.6607 99.6816 55.9498 99.5341 56.3836Z" fill="#F5F5F5"/>
<path d="M114.477 56.0944C114.231 57.1788 114.133 58.2631 114.329 58.4799C114.673 58.9859 116 56.4559 116 55.1547C116 53.4921 115.017 54.1427 114.477 56.0944Z" fill="#F5F5F5"/>
<path d="M150.898 56.095C150.259 58.4804 150.259 58.5527 151.143 58.5527C151.586 58.5527 152.126 57.6853 152.372 56.6733C153.011 54.2878 153.011 54.2155 152.126 54.2155C151.684 54.2155 151.143 55.0829 150.898 56.095Z" fill="#F5F5F5"/>
<path d="M164.121 56.0944C163.875 57.1788 163.777 58.2631 163.974 58.4799C164.318 58.9859 165.645 56.4559 165.645 55.1547C165.645 53.4921 164.662 54.1427 164.121 56.0944Z" fill="#F5F5F5"/>
</g>
<defs>
<clipPath id="clip0_211_1186">
<rect width="290" height="72.2874" fill="white"/>
</clipPath>
</defs>
</svg>
