<svg width="43" height="43" viewBox="0 0 43 43" fill="none" xmlns="http://www.w3.org/2000/svg">
<path d="M21.5001 15.9028C18.4178 15.9028 15.9025 18.4181 15.9025 21.5004C15.9025 24.5826 18.4178 27.0979 21.5001 27.0979C24.5823 27.0979 27.0976 24.5826 27.0976 21.5004C27.0976 18.4181 24.5823 15.9028 21.5001 15.9028ZM38.2886 21.5004C38.2886 19.1824 38.3096 16.8854 38.1794 14.5717C38.0492 11.8842 37.4361 9.499 35.4709 7.53377C33.5014 5.56433 31.1205 4.95545 28.433 4.82527C26.115 4.6951 23.818 4.71609 21.5043 4.71609C19.1863 4.71609 16.8893 4.6951 14.5756 4.82527C11.8881 4.95545 9.50291 5.56853 7.53767 7.53377C5.56824 9.5032 4.95935 11.8842 4.82918 14.5717C4.699 16.8896 4.72 19.1866 4.72 21.5004C4.72 23.8141 4.699 26.1153 4.82918 28.4291C4.95935 31.1166 5.57244 33.5017 7.53767 35.467C9.50711 37.4364 11.8881 38.0453 14.5756 38.1755C16.8935 38.3056 19.1905 38.2846 21.5043 38.2846C23.8222 38.2846 26.1192 38.3056 28.433 38.1755C31.1205 38.0453 33.5056 37.4322 35.4709 35.467C37.4403 33.4975 38.0492 31.1166 38.1794 28.4291C38.3138 26.1153 38.2886 23.8183 38.2886 21.5004ZM21.5001 30.113C16.734 30.113 12.8875 26.2665 12.8875 21.5004C12.8875 16.7343 16.734 12.8878 21.5001 12.8878C26.2662 12.8878 30.1127 16.7343 30.1127 21.5004C30.1127 26.2665 26.2662 30.113 21.5001 30.113ZM30.4654 14.5465C29.3526 14.5465 28.454 13.6478 28.454 12.535C28.454 11.4222 29.3526 10.5236 30.4654 10.5236C31.5782 10.5236 32.4768 11.4222 32.4768 12.535C32.4772 12.7993 32.4254 13.061 32.3244 13.3052C32.2234 13.5494 32.0753 13.7712 31.8884 13.9581C31.7016 14.1449 31.4797 14.2931 31.2355 14.394C30.9914 14.495 30.7296 14.5468 30.4654 14.5465Z" fill="#1B1E1F"/>
</svg>
