<svg width="126" height="111" viewBox="0 0 126 111" fill="none" xmlns="http://www.w3.org/2000/svg">
<path fill-rule="evenodd" clip-rule="evenodd" d="M44.155 0.247174L72.9255 10.0597L71.942 16.1248L81.2743 17.0199L109.01 30.5517L123.81 21.9544L126 25.5244L116.82 35.1435L121.025 47.1302L115.898 51.3855L106.141 37.5351L90.3866 37.2047L90.3154 38.9724L80.4236 40.9675L80.2634 37.444L57.4124 42.8366L63.7359 49.2189L62.4636 58.2571L49.0145 53.4651L50.2978 44.5078L35.5887 47.9643L18.5121 47.0577L12.84 41.3286L32.1301 35.2386L30.3676 32.6883L7.30903 39.5555L0 33.7135L27.038 11.5093L38.9873 13.0147L44.155 0.247174Z" fill="#2B2B2A"/>
<path fill-rule="evenodd" clip-rule="evenodd" d="M45.133 2.3833L40.0777 14.8723L27.5544 13.294L2.71108 33.6949L7.6777 37.6656L31.0681 30.6991L34.8495 36.1698L16.0197 42.1141L19.2619 45.3887L35.4355 46.2476L52.3437 42.274L50.9029 52.3267L61.064 55.9466L61.927 49.8179L54.0573 41.875L81.8759 35.3103L82.0399 38.9013L88.6622 37.5652L88.7472 35.4638L107.041 35.8474L116.23 48.8913L119.02 46.5755L114.862 34.7223L123.857 25.2967L123.225 24.2676L109.08 32.4848L80.803 18.6884L69.9646 17.6494L71.0088 11.2089L45.133 2.3833Z" fill="#4BBBBB"/>
<path fill-rule="evenodd" clip-rule="evenodd" d="M22.7873 21.7833L32.1142 21.3245L24.132 27.7815L22.7873 21.7833Z" fill="#2B2B2A"/>
<path fill-rule="evenodd" clip-rule="evenodd" d="M37.8753 18.6519L39.6642 17.8528L48.183 29.4689L42.4913 40.8971L40.4743 40.1751L45.8839 29.4627L37.8753 18.6519Z" fill="#2B2B2A"/>
<path fill-rule="evenodd" clip-rule="evenodd" d="M5.06653 95.8562C20.5355 96.0477 35.1893 95.7759 50.7926 95.3475C73.4004 94.7261 97.1383 93.9981 121.017 95.7399C121.604 95.7876 121.316 97.9901 120.889 97.9633C97.3898 96.4375 74.8145 96.3185 52.6286 96.9258C36.3419 97.3712 19.9817 98.4373 5.04501 98.4731C4.50722 98.4639 4.52555 95.8659 5.06653 95.8562Z" fill="#2B2B2A"/>
<path d="M34.3866 109.526V103.441H38.0635V104.094H35.1243V105.996H36.6712C37.1076 105.996 37.4754 106.067 37.7749 106.21C38.0764 106.353 38.3044 106.554 38.4591 106.813C38.6158 107.073 38.6941 107.379 38.6941 107.731C38.6941 108.084 38.6158 108.395 38.4591 108.664C38.3044 108.934 38.0764 109.145 37.7749 109.297C37.4754 109.45 37.1076 109.526 36.6712 109.526H34.3866ZM35.1243 108.884H36.6712C36.9489 108.884 37.1839 108.829 37.3763 108.718C37.5706 108.605 37.7174 108.46 37.8166 108.284C37.9177 108.106 37.9683 107.918 37.9683 107.72C37.9683 107.428 37.8562 107.178 37.6321 106.968C37.408 106.756 37.0877 106.65 36.6712 106.65H35.1243V108.884Z" fill="#2B2B2A"/>
<path d="M40.1585 109.526H39.385L41.6221 103.441H42.3837L44.6208 109.526H43.8473L42.0267 104.403H41.9791L40.1585 109.526ZM40.4441 107.149H43.5617V107.803H40.4441V107.149Z" fill="#2B2B2A"/>
<path d="M47.5212 109.609C47.1285 109.609 46.7785 109.542 46.4711 109.407C46.1657 109.273 45.9227 109.085 45.7423 108.846C45.5638 108.604 45.4666 108.324 45.4507 108.005H46.2004C46.2163 108.201 46.2837 108.37 46.4027 108.513C46.5217 108.654 46.6774 108.763 46.8697 108.84C47.0621 108.917 47.2753 108.956 47.5093 108.956C47.7711 108.956 48.0031 108.91 48.2054 108.819C48.4077 108.728 48.5664 108.601 48.6814 108.439C48.7964 108.276 48.854 108.088 48.854 107.874C48.854 107.65 48.7984 107.453 48.6874 107.283C48.5763 107.11 48.4137 106.976 48.1995 106.879C47.9853 106.782 47.7235 106.733 47.4141 106.733H46.9263V106.079H47.4141C47.6561 106.079 47.8683 106.036 48.0507 105.949C48.2352 105.861 48.379 105.739 48.4821 105.58C48.5872 105.422 48.6398 105.235 48.6398 105.021C48.6398 104.815 48.5941 104.636 48.5029 104.484C48.4117 104.331 48.2828 104.212 48.1162 104.127C47.9516 104.042 47.7572 103.999 47.5331 103.999C47.3229 103.999 47.1246 104.038 46.9382 104.115C46.7537 104.19 46.603 104.3 46.486 104.445C46.369 104.588 46.3055 104.76 46.2956 104.962H45.5816C45.5935 104.643 45.6897 104.364 45.8702 104.124C46.0507 103.882 46.2867 103.694 46.5782 103.56C46.8717 103.425 47.194 103.357 47.545 103.357C47.9218 103.357 48.2451 103.434 48.5148 103.586C48.7845 103.737 48.9918 103.936 49.1366 104.184C49.2813 104.431 49.3537 104.699 49.3537 104.986C49.3537 105.329 49.2635 105.621 49.083 105.862C48.9045 106.104 48.6616 106.271 48.3542 106.365V106.412C48.7389 106.475 49.0394 106.639 49.2556 106.902C49.4717 107.164 49.5798 107.488 49.5798 107.874C49.5798 108.205 49.4896 108.502 49.3091 108.765C49.1306 109.027 48.8867 109.233 48.5773 109.384C48.2679 109.534 47.9159 109.609 47.5212 109.609Z" fill="#2B2B2A"/>
<path d="M51.1535 109.526H50.38L52.6171 103.441H53.3787L55.6158 109.526H54.8423L53.0217 104.403H52.9741L51.1535 109.526ZM51.4391 107.149H54.5567V107.803H51.4391V107.149Z" fill="#2B2B2A"/>
<path d="M64.0613 106.483C64.0613 107.125 63.9453 107.68 63.7133 108.147C63.4812 108.615 63.1629 108.975 62.7584 109.229C62.3538 109.483 61.8917 109.609 61.3721 109.609C60.8525 109.609 60.3904 109.483 59.9858 109.229C59.5812 108.975 59.2629 108.615 59.0309 108.147C58.7988 107.68 58.6828 107.125 58.6828 106.483C58.6828 105.842 58.7988 105.287 59.0309 104.819C59.2629 104.352 59.5812 103.991 59.9858 103.738C60.3904 103.484 60.8525 103.357 61.3721 103.357C61.8917 103.357 62.3538 103.484 62.7584 103.738C63.1629 103.991 63.4812 104.352 63.7133 104.819C63.9453 105.287 64.0613 105.842 64.0613 106.483ZM63.3474 106.483C63.3474 105.956 63.2591 105.512 63.0826 105.149C62.9081 104.787 62.6711 104.512 62.3716 104.326C62.0741 104.14 61.741 104.047 61.3721 104.047C61.0032 104.047 60.669 104.14 60.3696 104.326C60.0721 104.512 59.8351 104.787 59.6586 105.149C59.484 105.512 59.3968 105.956 59.3968 106.483C59.3968 107.01 59.484 107.455 59.6586 107.818C59.8351 108.18 60.0721 108.454 60.3696 108.641C60.669 108.827 61.0032 108.92 61.3721 108.92C61.741 108.92 62.0741 108.827 62.3716 108.641C62.6711 108.454 62.9081 108.18 63.0826 107.818C63.2591 107.455 63.3474 107.01 63.3474 106.483Z" fill="#2B2B2A"/>
<path d="M64.715 104.094V103.441H69.2844V104.094H67.3686V109.526H66.6308V104.094H64.715Z" fill="#2B2B2A"/>
<path d="M69.8995 111V108.872H70.2921C70.427 108.75 70.5539 108.576 70.6729 108.352C70.7939 108.127 70.896 107.826 70.9793 107.449C71.0646 107.071 71.1211 106.59 71.1489 106.008L71.2798 103.441H74.8972V108.872H75.5992V110.988H74.8972V109.526H70.6015V111H69.8995ZM71.1727 108.872H74.1951V104.094H71.9461L71.8509 106.008C71.8271 106.452 71.7855 106.854 71.726 107.214C71.6665 107.573 71.5901 107.891 71.4969 108.168C71.4037 108.444 71.2956 108.678 71.1727 108.872Z" fill="#2B2B2A"/>
<path d="M77.2614 105.996H78.9987C79.435 105.996 79.8029 106.067 80.1024 106.21C80.4039 106.353 80.6319 106.554 80.7866 106.813C80.9433 107.073 81.0216 107.379 81.0216 107.731C81.0216 108.084 80.9433 108.395 80.7866 108.664C80.6319 108.934 80.4039 109.145 80.1024 109.297C79.8029 109.45 79.435 109.526 78.9987 109.526H76.7141V103.441H77.4518V108.884H78.9987C79.2764 108.884 79.5114 108.829 79.7038 108.718C79.8981 108.605 80.0449 108.46 80.1441 108.284C80.2452 108.106 80.2958 107.918 80.2958 107.72C80.2958 107.428 80.1837 107.178 79.9596 106.968C79.7355 106.756 79.4152 106.65 78.9987 106.65H77.2614V105.996ZM82.3544 103.441V109.526H81.6166V103.441H82.3544Z" fill="#2B2B2A"/>
<path d="M84.1883 103.441L85.7591 105.972H85.8067L87.3774 103.441H88.246L86.3302 106.483L88.246 109.526H87.3774L85.8067 107.042H85.7591L84.1883 109.526H83.3197L85.2831 106.483L83.3197 103.441H84.1883Z" fill="#2B2B2A"/>
<path d="M89.456 109.526H88.6826L90.9197 103.441H91.6812L93.9183 109.526H93.1448L91.3242 104.403H91.2766L89.456 109.526ZM89.7416 107.149H92.8593V107.803H89.7416V107.149Z" fill="#2B2B2A"/>
<path d="M26.7536 78.0189C26.7536 78.6694 26.3239 78.9946 25.4643 78.9946C25.4318 78.9946 25.1778 78.9848 24.7025 78.9653C24.6113 80.006 24.5657 81.4889 24.5657 83.4141C24.5657 84.1101 24.5983 85.1508 24.6634 86.5362C24.735 87.915 24.7708 88.9525 24.7708 89.6484C24.7708 89.863 24.8001 90.185 24.8588 90.6143C24.9174 91.0435 24.9467 91.3655 24.9467 91.5801C24.9467 91.8533 24.8522 92.081 24.6634 92.2631C24.4811 92.4452 24.2499 92.5363 23.9699 92.5363C23.4295 92.5363 23.1104 92.2338 23.0127 91.6289C22.889 90.8614 22.8271 90.2013 22.8271 89.6484C22.8271 88.9525 22.7946 87.915 22.7295 86.5362C22.6643 85.1508 22.6318 84.1101 22.6318 83.4141C22.6318 81.4824 22.6774 79.9669 22.7685 78.8677H22.7588C22.8955 78.8742 22.6643 78.9035 22.0653 78.9555C21.7462 78.9751 21.0788 78.9848 20.0629 78.9848C18.2788 78.9848 16.5727 78.9555 14.9448 78.897C15.1336 82.1946 15.2281 84.4776 15.2281 85.7459C15.2281 86.0646 15.2085 86.5069 15.1695 87.0727C15.1239 87.7037 15.0978 88.1492 15.0913 88.4094C15.0783 88.7346 15.0783 89.1638 15.0913 89.6972C15.1043 90.3736 15.1109 90.8061 15.1109 90.9948C15.1109 92.0289 14.7755 92.546 14.1048 92.546C13.6295 92.546 13.3299 92.3444 13.2062 91.9411C13.1541 91.772 13.1281 91.3785 13.1281 90.7606C13.1281 89.6939 13.1346 88.8939 13.1476 88.3606C13.1541 88.1134 13.1802 87.6776 13.2257 87.0532C13.2648 86.5004 13.2843 86.0646 13.2843 85.7459C13.2843 84.9784 13.1899 82.6792 13.0011 78.8482C12.8643 78.8482 12.6299 78.8515 12.2978 78.858C11.9983 78.8645 11.7639 78.8677 11.5946 78.8677C11.3146 78.8677 11.0834 78.7767 10.9011 78.5946C10.7188 78.4124 10.6276 78.1815 10.6276 77.9019C10.6276 77.2254 11.1485 76.8872 12.1904 76.8872C12.796 76.8872 13.7043 76.9132 14.9155 76.9653C16.1267 77.0108 17.035 77.0336 17.6406 77.0336L25.7769 77.0531C26.0569 77.0531 26.2881 77.1441 26.4704 77.3262C26.6592 77.5084 26.7536 77.7393 26.7536 78.0189Z" fill="#2B2B2A"/>
<path d="M39.9787 92.4777C39.3797 92.4777 38.8587 91.7102 38.416 90.1752C38.2466 89.5899 38.035 88.5655 37.7811 87.102C37.1169 87.1931 36.2476 87.3557 35.1732 87.5898L32.575 88.1264C32.2494 88.9785 31.6927 90.224 30.9048 91.8631C30.6964 92.2273 30.4132 92.4094 30.055 92.4094C29.7946 92.4094 29.5601 92.3151 29.3518 92.1265C29.1499 91.9379 29.049 91.7037 29.049 91.424C29.049 91.1118 29.5406 89.9248 30.5239 87.863C30.4132 87.6939 30.3578 87.4988 30.3578 87.2776C30.3578 86.7508 30.6769 86.4126 31.315 86.263C32.0574 84.8711 32.995 83.2711 34.128 81.4629C35.6713 78.9978 36.6318 77.7653 37.0094 77.7653C37.5239 77.7653 37.8755 78.123 38.0643 78.8385L38.6797 82.1166L40.135 88.8972L40.6918 90.4387C40.8806 90.9655 40.975 91.3167 40.975 91.4923C40.975 91.772 40.8741 92.0062 40.6722 92.1948C40.4704 92.3834 40.2392 92.4777 39.9787 92.4777ZM36.5308 81.3263L33.7373 85.824C34.5253 85.6223 35.7201 85.3784 37.322 85.0922L36.5308 81.3263Z" fill="#2B2B2A"/>
<path d="M46.435 86.4581C46.2527 86.4581 45.8555 86.4158 45.2434 86.3313C45.1913 87.3134 45.1652 89.0338 45.1652 91.4923C45.1652 91.7525 45.0806 91.9736 44.9113 92.1558C44.742 92.3314 44.5304 92.4192 44.2764 92.4192C44.0159 92.4192 43.8011 92.3314 43.6318 92.1558C43.4625 91.9736 43.3778 91.7525 43.3778 91.4923V88.624C43.3778 87.6679 43.4364 86.3215 43.5536 84.5849C43.6838 82.7052 43.7555 81.3588 43.7685 80.5458V79.1994C43.7685 78.5555 43.8076 78.0872 43.8857 77.7945C44.0355 77.2222 44.3545 76.975 44.8429 77.0531C45.0513 76.988 45.3476 76.9392 45.7318 76.9067C46.1159 76.8742 46.588 76.8579 47.148 76.8579C48.3397 76.8579 49.4564 77.2645 50.4983 78.0775C51.6443 78.9751 52.2173 80.0547 52.2173 81.3166C52.2173 82.9296 51.6052 84.2142 50.3811 85.1703C49.2871 86.0288 47.9718 86.4581 46.435 86.4581ZM46.9234 78.7116C46.6369 78.7116 46.3797 78.7181 46.1518 78.7311C45.9304 78.7442 45.7415 78.7637 45.5852 78.7897L45.5657 80.5848L45.3606 84.4678L46.435 84.5947C47.529 84.5947 48.4504 84.3182 49.1992 83.7654C50.0197 83.1605 50.4299 82.3442 50.4299 81.3166C50.4299 80.5881 50.0392 79.9604 49.2578 79.4336C48.535 78.9523 47.7569 78.7116 46.9234 78.7116Z" fill="#2B2B2A"/>
<path d="M65.0224 92.4777C64.4234 92.4777 63.9024 91.7102 63.4596 90.1752C63.2903 89.5899 63.0787 88.5655 62.8248 87.102C62.1606 87.1931 61.2913 87.3557 60.2169 87.5898L57.6187 88.1264C57.2931 88.9785 56.7364 90.224 55.9485 91.8631C55.7401 92.2273 55.4569 92.4094 55.0987 92.4094C54.8383 92.4094 54.6038 92.3151 54.3955 92.1265C54.1936 91.9379 54.0927 91.7037 54.0927 91.424C54.0927 91.1118 54.5843 89.9248 55.5676 87.863C55.4569 87.6939 55.4015 87.4988 55.4015 87.2776C55.4015 86.7508 55.7206 86.4126 56.3587 86.263C57.101 84.8711 58.0387 83.2711 59.1717 81.4629C60.715 78.9978 61.6755 77.7653 62.0531 77.7653C62.5676 77.7653 62.9192 78.123 63.108 78.8385L63.7234 82.1166L65.1787 88.8972L65.7355 90.4387C65.9243 90.9655 66.0187 91.3167 66.0187 91.4923C66.0187 91.772 65.9178 92.0062 65.7159 92.1948C65.5141 92.3834 65.2829 92.4777 65.0224 92.4777ZM61.5745 81.3263L58.781 85.824C59.569 85.6223 60.7638 85.3784 62.3657 85.0922L61.5745 81.3263Z" fill="#2B2B2A"/>
<path d="M83.3168 92.9948C82.9652 92.9948 82.6754 92.8127 82.4475 92.4484C82.2522 92.1362 82.0764 91.6159 81.9201 90.8875L81.5685 89.2094C81.3015 88.1687 80.8782 85.8727 80.2987 82.3214L78.3452 88.2045L77.7689 90.0582C77.5345 90.7931 77.2903 91.3948 77.0364 91.8631C76.7629 92.3574 76.395 92.6045 75.9326 92.6045C75.5485 92.6045 75.2457 92.3964 75.0243 91.9801C74.881 91.707 74.7508 91.359 74.6336 90.9362L74.3503 89.8533C73.6927 87.5573 73.1131 85.0987 72.6117 82.4775L72.2601 84.2239L71.0001 89.3752C70.948 89.9801 70.7852 90.8744 70.5117 92.0582C70.3164 92.5655 69.9941 92.8192 69.5448 92.8192C69.2257 92.8192 68.9717 92.7054 68.7829 92.4777C68.6201 92.2826 68.5387 92.0419 68.5387 91.7558C68.5387 90.6696 68.7634 89.3362 69.2127 87.7557L70.2871 83.8239L70.8536 80.7507C71.1401 79.3133 71.4429 78.3734 71.762 77.9311C72.0224 77.5539 72.3447 77.3653 72.7289 77.3653C73.1522 77.3653 73.468 77.6059 73.6764 78.0872C73.9303 78.6661 74.2038 79.8466 74.4968 81.6288C74.842 83.7686 75.3792 86.0841 76.1085 88.5752C77.0722 86.0711 77.9057 83.4629 78.6089 80.7507L78.902 79.3263C79.0192 78.7539 79.1722 78.2921 79.361 77.9409C79.615 77.4596 79.9633 77.2189 80.4061 77.2189C80.9661 77.2189 81.3926 77.7588 81.6857 78.8385C81.7899 79.2092 81.9168 79.9767 82.0666 81.1409C82.4508 84.0808 82.9294 86.5914 83.5024 88.6728L83.981 90.3509C84.2285 91.2484 84.3522 91.8013 84.3522 92.0094C84.3522 92.2891 84.2447 92.5232 84.0299 92.7119C83.8215 92.9005 83.5838 92.9948 83.3168 92.9948Z" fill="#2B2B2A"/>
<path d="M92.9378 92.7802C91.1015 92.7802 89.5452 92.2306 88.2689 91.1313C86.9145 89.9606 86.2373 88.4516 86.2373 86.6044C86.2373 84.354 86.9047 82.3084 88.2396 80.4678C89.7308 78.4255 91.5898 77.4043 93.8168 77.4043C95.9591 77.4043 97.5512 77.8856 98.5931 78.8482C99.6805 79.8499 100.224 81.4304 100.224 83.5898C100.224 85.8402 99.6122 87.8695 98.388 89.6777C96.9815 91.746 95.1647 92.7802 92.9378 92.7802ZM93.8168 79.4043C92.2215 79.4043 90.8703 80.1978 89.7633 81.7849C88.741 83.2418 88.2298 84.8483 88.2298 86.6044C88.2298 87.8597 88.6954 88.8809 89.6266 89.6679C90.5187 90.4094 91.6224 90.7801 92.9378 90.7801C94.5201 90.7801 95.8257 89.9834 96.8545 88.3898C97.7726 86.9654 98.2317 85.3654 98.2317 83.5898C98.2317 82.0353 97.8833 80.9426 97.1866 80.3117C96.5224 79.7068 95.3991 79.4043 93.8168 79.4043Z" fill="#2B2B2A"/>
<path d="M115.305 78.4385C115.207 78.7116 115.159 79.1116 115.159 79.6385C115.159 79.8336 115.165 80.123 115.178 80.5068C115.191 80.8905 115.198 81.18 115.198 81.3751C115.198 82.0255 115.139 82.9946 115.022 84.2825C114.911 85.5703 114.856 86.5394 114.856 87.1898C114.856 87.6841 114.892 88.4256 114.963 89.4143C115.035 90.4029 115.071 91.1476 115.071 91.6484C115.071 91.9151 114.98 92.1395 114.797 92.3216C114.621 92.5037 114.4 92.5948 114.133 92.5948C113.873 92.5948 113.651 92.5037 113.469 92.3216C113.287 92.1395 113.195 91.9151 113.195 91.6484C113.195 91.1476 113.16 90.4029 113.088 89.4143C113.016 88.4256 112.981 87.6841 112.981 87.1898C112.981 86.715 112.997 86.2337 113.029 85.7459C111.916 85.7654 110.539 85.9313 108.898 86.2435L104.795 87.0435C104.795 87.6289 104.737 88.4614 104.62 89.5411C104.502 90.6143 104.444 91.4468 104.444 92.0387C104.444 92.3054 104.353 92.5297 104.17 92.7119C103.994 92.9005 103.773 92.9948 103.506 92.9948C103.239 92.9948 103.014 92.9005 102.832 92.7119C102.656 92.5297 102.568 92.3054 102.568 92.0387C102.568 91.3492 102.624 90.3216 102.734 88.9557C102.852 87.5833 102.91 86.5524 102.91 85.863C102.91 85.5052 102.897 84.9654 102.871 84.2434C102.845 83.5215 102.832 82.9784 102.832 82.6141C102.832 82.1003 102.865 81.3296 102.93 80.3019C102.995 79.2677 103.028 78.4937 103.028 77.9799C103.028 77.7067 103.115 77.4791 103.291 77.297C103.474 77.1149 103.698 77.0238 103.965 77.0238C104.232 77.0238 104.454 77.1149 104.629 77.297C104.812 77.4791 104.903 77.7067 104.903 77.9799C104.903 78.5002 104.867 79.2808 104.795 80.3214C104.73 81.3556 104.698 82.1328 104.698 82.6532L104.756 85.1215L108.947 84.3312C110.62 84.019 112.03 83.8564 113.176 83.8434C113.247 82.9133 113.283 81.5117 113.283 79.6385C113.283 79.1442 113.365 78.6433 113.527 78.136C113.742 77.4401 114.045 77.0921 114.436 77.0921C114.683 77.0921 114.905 77.1832 115.1 77.3653C115.295 77.5409 115.393 77.7653 115.393 78.0385C115.393 78.136 115.364 78.2694 115.305 78.4385Z" fill="#2B2B2A"/>
<path fill-rule="evenodd" clip-rule="evenodd" d="M64.1958 2.60088L61.4154 7.09309C62.2021 6.89003 63.3956 6.64678 64.9993 6.36039L64.1958 2.60088Z" fill="#4BBBBB"/>
<path fill-rule="evenodd" clip-rule="evenodd" d="M73.2375 1.87153L73.0175 5.74766L74.0976 5.87437C75.1979 5.87437 76.1281 5.59791 76.8816 5.04514C77.7049 4.44224 78.1184 3.62651 78.1184 2.6009C78.1184 1.87487 77.7249 1.24536 76.9415 0.719206C76.2181 0.239763 75.438 0 74.6012 0C74.3145 0 74.0577 0.00659738 73.831 0.0200209C73.6044 0.0332116 73.4143 0.0532302 73.2575 0.0765079L73.2375 1.87153Z" fill="#4BBBBB"/>
<path fill-rule="evenodd" clip-rule="evenodd" d="M89.2403 2.60088L86.4599 7.09309C87.2467 6.89003 88.4401 6.64678 90.0439 6.36039L89.2403 2.60088Z" fill="#4BBBBB"/>
<path fill-rule="evenodd" clip-rule="evenodd" d="M117.452 3.06343C116.432 4.52209 115.922 6.13034 115.922 7.88882C115.922 9.14427 116.385 10.1666 117.315 10.9557C118.206 11.6983 119.309 12.068 120.619 12.068C122.2 12.068 123.503 11.2687 124.53 9.67368C125.447 8.24846 125.904 6.64657 125.904 4.8683C125.904 3.31327 125.557 2.21751 124.86 1.58824C124.196 0.982088 123.076 0.678933 121.496 0.678933C119.906 0.678933 118.555 1.47495 117.452 3.06343Z" fill="#4BBBBB"/>
</svg>
