<svg width="25" height="25" viewBox="0 0 25 25" fill="none" xmlns="http://www.w3.org/2000/svg">
<path fill-rule="evenodd" clip-rule="evenodd" d="M13.3333 0C12.781 0 12.3333 0.447715 12.3333 1C12.3333 1.55228 12.781 2 13.3333 2C14.6028 2 15.8598 2.25004 17.0326 2.73583C18.2054 3.22163 19.2711 3.93367 20.1687 4.8313C21.0663 5.72893 21.7784 6.79458 22.2642 7.96739C22.75 9.14021 23 10.3972 23 11.6667C23 12.219 23.4477 12.6667 24 12.6667C24.5523 12.6667 25 12.219 25 11.6667C25 10.1346 24.6982 8.61749 24.1119 7.20203C23.5256 5.78656 22.6663 4.50044 21.5829 3.41709C20.4996 2.33374 19.2134 1.47438 17.798 0.888072C16.3825 0.301767 14.8654 0 13.3333 0ZM24 22.3333V20.1388C24 19.0483 23.3361 18.0678 22.3237 17.6628L19.6115 16.5779C18.3238 16.0629 16.8563 16.6208 16.236 17.8613L16 18.3333C16 18.3333 12.6667 17.6667 10 15C7.33333 12.3333 6.66667 9 6.66667 9L7.13869 8.76399C8.37917 8.14375 8.93714 6.67618 8.42206 5.38848L7.33718 2.67629C6.93221 1.66387 5.95166 1 4.86125 1H2.66667C1.19391 1 0 2.19391 0 3.66667C0 15.4487 9.55126 25 21.3333 25C22.8061 25 24 23.8061 24 22.3333ZM12.3333 6.33333C12.3333 5.78105 12.781 5.33333 13.3333 5.33333C14.165 5.33333 14.9886 5.49715 15.757 5.81543C16.5254 6.13371 17.2236 6.60022 17.8117 7.18832C18.3998 7.77643 18.8663 8.47461 19.1846 9.243C19.5028 10.0114 19.6667 10.835 19.6667 11.6667C19.6667 12.219 19.219 12.6667 18.6667 12.6667C18.1144 12.6667 17.6667 12.219 17.6667 11.6667C17.6667 11.0976 17.5546 10.5341 17.3368 10.0084C17.119 9.48263 16.7999 9.00492 16.3975 8.60254C15.9951 8.20015 15.5174 7.88096 14.9916 7.66319C14.4659 7.44542 13.9024 7.33333 13.3333 7.33333C12.781 7.33333 12.3333 6.88562 12.3333 6.33333Z" fill="white"/>
</svg>
