<svg width="43" height="43" viewBox="0 0 43 43" fill="none" xmlns="http://www.w3.org/2000/svg">
<path d="M36.1201 12.2555C30.9601 4.30052 20.4251 1.93552 12.2551 6.88052C4.30014 11.8255 1.72014 22.5755 6.88014 30.5305L7.31014 31.1755L5.59014 37.6255L12.0401 35.9055L12.6851 36.3355C15.4801 37.8405 18.4901 38.7005 21.5001 38.7005C24.7251 38.7005 27.9501 37.8405 30.7451 36.1205C38.7001 30.9605 41.0651 20.4255 36.1201 12.2555ZM31.6051 28.8105C30.7451 30.1005 29.6701 30.9605 28.1651 31.1755C27.3051 31.1755 26.2301 31.6055 21.9301 29.8855C18.2751 28.1655 15.2651 25.3705 13.1151 22.1455C11.8251 20.6405 11.1801 18.7055 10.9651 16.7705C10.9651 15.0505 11.6101 13.5455 12.6851 12.4705C13.1151 12.0405 13.5451 11.8255 13.9751 11.8255H15.0501C15.4801 11.8255 15.9101 11.8255 16.1251 12.6855C16.5551 13.7605 17.6301 16.3405 17.6301 16.5555C17.8451 16.7705 17.8451 17.2005 17.6301 17.4155C17.8451 17.8455 17.6301 18.2755 17.4151 18.4905C17.2001 18.7055 16.9851 19.1355 16.7701 19.3505C16.3401 19.5655 16.1251 19.9955 16.3401 20.4255C17.2001 21.7155 18.2751 23.0055 19.3501 24.0805C20.6401 25.1555 21.9301 26.0155 23.4351 26.6605C23.8651 26.8755 24.2951 26.8755 24.5101 26.4455C24.7251 26.0155 25.8001 24.9405 26.2301 24.5105C26.6601 24.0805 26.8751 24.0805 27.3051 24.2955L30.7451 26.0155C31.1751 26.2305 31.6051 26.4455 31.8201 26.6605C32.0351 27.3055 32.0351 28.1655 31.6051 28.8105Z" fill="#1B1E1F"/>
</svg>
